<svg width="42" height="42" viewBox="0 0 42 42" fill="none" xmlns="http://www.w3.org/2000/svg">
    <path d="M38.5 8.48744V29.2949C38.5 30.9924 37.1175 32.5499 35.42 32.7599L34.8775 32.8299C32.0075 33.2149 27.965 34.4049 24.71 35.7699C23.5725 36.2424 22.3125 35.3849 22.3125 34.1424V9.79994C22.3125 9.15244 22.68 8.55744 23.2575 8.24244C26.46 6.50994 31.3075 4.96994 34.5975 4.68994H34.7025C36.8025 4.68994 38.5 6.38744 38.5 8.48744Z"
          fill="#fff"/>
    <path d="M18.7425 8.24244C15.54 6.50994 10.6925 4.96994 7.40248 4.68994H7.27998C5.17998 4.68994 3.48248 6.38744 3.48248 8.48744V29.2949C3.48248 30.9924 4.86498 32.5499 6.56248 32.7599L7.10498 32.8299C9.97498 33.2149 14.0175 34.4049 17.2725 35.7699C18.41 36.2424 19.67 35.3849 19.67 34.1424V9.79994C19.67 9.13494 19.32 8.55744 18.7425 8.24244ZM8.74998 13.5449H12.6875C13.405 13.5449 14 14.1399 14 14.8574C14 15.5924 13.405 16.1699 12.6875 16.1699H8.74998C8.03248 16.1699 7.43748 15.5924 7.43748 14.8574C7.43748 14.1399 8.03248 13.5449 8.74998 13.5449ZM14 21.4199H8.74998C8.03248 21.4199 7.43748 20.8424 7.43748 20.1074C7.43748 19.3899 8.03248 18.7949 8.74998 18.7949H14C14.7175 18.7949 15.3125 19.3899 15.3125 20.1074C15.3125 20.8424 14.7175 21.4199 14 21.4199Z"
          fill="#fff"/>
</svg>
