<svg width="42" height="42" viewBox="0 0 42 42" fill="none" xmlns="http://www.w3.org/2000/svg">
    <path d="M35.875 28V32.375C35.875 35.7525 33.1275 38.5 29.75 38.5H12.25C8.8725 38.5 6.125 35.7525 6.125 32.375V31.2375C6.125 28.49 8.365 26.25 11.1125 26.25H34.125C35.0875 26.25 35.875 27.0375 35.875 28Z"
          fill="#292D32"/>
    <path d="M27.125 3.5H14.875C7.875 3.5 6.125 5.25 6.125 12.25V25.515C7.455 24.3425 9.205 23.625 11.1125 23.625H34.125C35.0875 23.625 35.875 22.8375 35.875 21.875V12.25C35.875 5.25 34.125 3.5 27.125 3.5ZM22.75 18.8125H14C13.2825 18.8125 12.6875 18.2175 12.6875 17.5C12.6875 16.7825 13.2825 16.1875 14 16.1875H22.75C23.4675 16.1875 24.0625 16.7825 24.0625 17.5C24.0625 18.2175 23.4675 18.8125 22.75 18.8125ZM28 12.6875H14C13.2825 12.6875 12.6875 12.0925 12.6875 11.375C12.6875 10.6575 13.2825 10.0625 14 10.0625H28C28.7175 10.0625 29.3125 10.6575 29.3125 11.375C29.3125 12.0925 28.7175 12.6875 28 12.6875Z"
          fill="#292D32"/>
</svg>
