<svg width="32" height="32" viewBox="0 0 32 32" fill="none" xmlns="http://www.w3.org/2000/svg">
    <path d="M14.68 26.6934C21.3148 26.6934 26.6933 21.3149 26.6933 14.6801C26.6933 8.0453 21.3148 2.66675 14.68 2.66675C8.04522 2.66675 2.66667 8.0453 2.66667 14.6801C2.66667 21.3149 8.04522 26.6934 14.68 26.6934Z"
          fill="#6B7A99"/>
    <path d="M29.32 25.2667C28.88 24.4533 27.9467 24 26.6933 24C25.7467 24 24.9333 24.3867 24.4533 25.0533C23.9733 25.72 23.8667 26.6133 24.16 27.5067C24.7333 29.24 25.7333 29.6267 26.28 29.6933C26.36 29.7067 26.44 29.7067 26.5333 29.7067C27.12 29.7067 28.0267 29.4533 28.9067 28.1333C29.6133 27.1067 29.7467 26.08 29.32 25.2667Z"
          fill="#6B7A99"/>
</svg>
