<svg width="36" height="36" viewBox="0 0 36 36" fill="none" xmlns="http://www.w3.org/2000/svg">
    <path d="M28.41 8.12991L20.655 3.64491C19.17 2.78991 16.845 2.78991 15.36 3.64491L7.53 8.15991C4.425 10.2599 4.245 10.5749 4.245 13.9199V22.0649C4.245 25.4099 4.425 25.7399 7.59 27.8699L15.345 32.3549C16.095 32.7899 17.055 32.9999 18 32.9999C18.945 32.9999 19.905 32.7899 20.64 32.3549L28.47 27.8399C31.575 25.7399 31.755 25.4249 31.755 22.0799V13.9199C31.755 10.5749 31.575 10.2599 28.41 8.12991ZM18 22.8749C15.315 22.8749 13.125 20.6849 13.125 17.9999C13.125 15.3149 15.315 13.1249 18 13.1249C20.685 13.1249 22.875 15.3149 22.875 17.9999C22.875 20.6849 20.685 22.8749 18 22.8749Z"
          fill="#6B7A99"/>
</svg>
